<svg fill="#000000" xmlns="http://www.w3.org/2000/svg"  viewBox="0 0 24 24" width="100px" height="100px"><path d="M13,2h-3C8.25,2,7,3.25,7,5v2h5v1H5c-1.813,0-3,1.281-3,3v3c0,1.781,1.187,3,3,3h2v-4c0-1.1,0.9-2,2-2h5c1.1,0,2-0.9,2-2V5C16,3.25,14.781,2,13,2z M9,6C8.448,6,8,5.552,8,5c0-0.552,0.448-1,1-1s1,0.448,1,1C10,5.552,9.552,6,9,6z"/><path d="M11,21h3c1.75,0,3-1.25,3-3v-2h-5v-1h7c1.813,0,3-1.281,3-3V9c0-1.781-1.188-3-3-3h-2v4c0,1.1-0.9,2-2,2h-5c-1.1,0-2,0.9-2,2v4C8,19.75,9.219,21,11,21z M15,17c0.552,0,1,0.448,1,1c0,0.552-0.448,1-1,1s-1-0.448-1-1C14,17.448,14.448,17,15,17z"/></svg>